<?xml version="1.0" ?><!DOCTYPE svg  PUBLIC '-//W3C//DTD SVG 1.1//EN'  'http://www.w3.org/Graphics/SVG/1.1/DTD/svg11.dtd'><svg xmlns="http://www.w3.org/2000/svg" xmlns:xlink="http://www.w3.org/1999/xlink" xmlns:serif="http://www.serif.com/" width="100%" height="100%" viewBox="0 0 512 512" version="1.1" xml:space="preserve" style="fill-rule:evenodd;clip-rule:evenodd;stroke-linejoin:round;stroke-miterlimit:2;"><g transform="matrix(1,0,0,1,-1686,-2810)"><g id="Icons"><path d="M2003.86,3196.95C2003.86,3182.61 1992.22,3170.96 1977.87,3170.96C1977.87,3170.96 1906.13,3170.96 1906.13,3170.96C1891.78,3170.96 1880.14,3182.61 1880.14,3196.95L1880.14,3246.65C1880.14,3249.41 1882.37,3251.65 1885.14,3251.65L1998.86,3251.65C2001.63,3251.65 2003.86,3249.41 2003.86,3246.65L2003.86,3196.95ZM1978.23,3241.65L1993.86,3241.65L1993.86,3196.95C1993.86,3188.13 1986.7,3180.96 1977.87,3180.96L1906.13,3180.96C1897.3,3180.96 1890.14,3188.13 1890.14,3196.95C1890.14,3196.95 1890.14,3241.65 1890.14,3241.65L1905.77,3241.65L1905.77,3224.59C1905.77,3221.83 1908.01,3219.59 1910.77,3219.59C1913.53,3219.59 1915.77,3221.83 1915.77,3224.59L1915.77,3241.65L1968.23,3241.65L1968.23,3224.59C1968.23,3221.83 1970.47,3219.59 1973.23,3219.59C1975.99,3219.59 1978.23,3221.83 1978.23,3224.59L1978.23,3241.65ZM2187,3102.35C2187,3099.59 2184.76,3097.35 2182,3097.35L2157,3097.35C2154.24,3097.35 2152,3099.59 2152,3102.35L2152,3199.35C2152,3202.11 2154.24,3204.35 2157,3204.35L2182,3204.35C2184.76,3204.35 2187,3202.11 2187,3199.35L2187,3102.35ZM1741,3116.35C1716.72,3116.35 1697,3136.07 1697,3160.35C1697,3184.64 1716.72,3204.35 1741,3204.35C1765.28,3204.35 1785,3184.64 1785,3160.35C1785,3136.07 1765.28,3116.35 1741,3116.35ZM2146,3135.35C2146,3132.59 2143.76,3130.35 2141,3130.35L2116,3130.35C2113.24,3130.35 2111,3132.59 2111,3135.35L2111,3199.35C2111,3202.11 2113.24,3204.35 2116,3204.35L2141,3204.35C2143.76,3204.35 2146,3202.11 2146,3199.35L2146,3135.35ZM2136,3140.35L2136,3194.35C2136,3194.35 2121,3194.35 2121,3194.35C2121,3194.35 2121,3140.35 2121,3140.35L2136,3140.35ZM1741,3126.35C1759.77,3126.35 1775,3141.59 1775,3160.35C1775,3179.12 1759.77,3194.35 1741,3194.35C1722.24,3194.35 1707,3179.12 1707,3160.35C1707,3141.59 1722.24,3126.35 1741,3126.35ZM2177,3107.35L2177,3194.35C2177,3194.35 2162,3194.35 2162,3194.35C2162,3194.35 2162,3107.35 2162,3107.35L2177,3107.35ZM1741,3135.26C1727.15,3135.26 1715.91,3146.51 1715.91,3160.35C1715.91,3174.2 1727.15,3185.44 1741,3185.44C1754.85,3185.44 1766.09,3174.2 1766.09,3160.35C1766.09,3146.51 1754.85,3135.26 1741,3135.26ZM1741,3145.26C1749.33,3145.26 1756.09,3152.02 1756.09,3160.35C1756.09,3168.68 1749.33,3175.44 1741,3175.44C1732.67,3175.44 1725.91,3168.68 1725.91,3160.35C1725.91,3152.02 1732.67,3145.26 1741,3145.26ZM1840.45,3155.21L1794.23,3155.21C1791.47,3155.21 1789.23,3157.45 1789.23,3160.21C1789.23,3162.97 1791.47,3165.21 1794.23,3165.21L1840.45,3165.21C1843.21,3165.21 1845.45,3162.97 1845.45,3160.21C1845.45,3157.45 1843.21,3155.21 1840.45,3155.21ZM2043.55,3165.21L2089.78,3165.21C2092.53,3165.21 2094.78,3162.97 2094.78,3160.21C2094.78,3157.45 2092.53,3155.21 2089.78,3155.21L2043.55,3155.21C2040.79,3155.21 2038.55,3157.45 2038.55,3160.21C2038.55,3162.97 2040.79,3165.21 2043.55,3165.21ZM1942,3073.85C1919.31,3073.85 1900.89,3092.27 1900.89,3114.96C1900.89,3137.65 1919.31,3156.07 1942,3156.07C1964.69,3156.07 1983.11,3137.65 1983.11,3114.96C1983.11,3092.27 1964.69,3073.85 1942,3073.85ZM1942,3083.85C1959.17,3083.85 1973.11,3097.79 1973.11,3114.96C1973.11,3132.13 1959.17,3146.07 1942,3146.07C1924.83,3146.07 1910.89,3132.13 1910.89,3114.96C1910.89,3097.79 1924.83,3083.85 1942,3083.85ZM2026.89,3082.39L2059.57,3049.7C2061.53,3047.75 2061.53,3044.58 2059.57,3042.63C2057.62,3040.68 2054.45,3040.68 2052.5,3042.63L2019.82,3075.32C2017.87,3077.27 2017.87,3080.44 2019.82,3082.39C2021.77,3084.34 2024.94,3084.34 2026.89,3082.39ZM1864.18,3075.32L1831.5,3042.63C1829.55,3040.68 1826.38,3040.68 1824.43,3042.63C1822.47,3044.58 1822.47,3047.75 1824.43,3049.7L1857.11,3082.39C1859.06,3084.34 1862.23,3084.34 1864.18,3082.39C1866.13,3080.44 1866.13,3077.27 1864.18,3075.32ZM1741,2979.35C1741,2979.35 1741,3053.35 1741,3053.35C1741,3057.91 1743.85,3062.47 1749.49,3065.89C1755.82,3069.73 1765.99,3072.35 1777.5,3072.35C1789.01,3072.35 1799.18,3069.73 1805.51,3065.89C1811.15,3062.47 1814,3057.91 1814,3053.35C1814,3053.35 1814,2979.35 1814,2979.35C1814,2974.79 1811.15,2970.23 1805.51,2966.81C1799.18,2962.98 1789.01,2960.35 1777.5,2960.35C1765.99,2960.35 1755.82,2962.98 1749.49,2966.81C1743.85,2970.23 1741,2974.79 1741,2979.35ZM1804,2992.75C1797.63,2996.11 1788.13,2998.35 1777.5,2998.35C1766.87,2998.35 1757.37,2996.11 1751,2992.75L1751,3053.35C1751,3054.99 1752.65,3056.12 1754.67,3057.34C1759.82,3060.46 1768.14,3062.35 1777.5,3062.35C1786.86,3062.35 1795.18,3060.46 1800.33,3057.34C1802.35,3056.12 1804,3054.99 1804,3053.35L1804,2992.75ZM1947,3045.16L1947,2998.93C1947,2996.17 1944.76,2993.93 1942,2993.93C1939.24,2993.93 1937,2996.17 1937,2998.93L1937,3045.16C1937,3047.91 1939.24,3050.16 1942,3050.16C1944.76,3050.16 1947,3047.91 1947,3045.16ZM2056.77,2961.86C2056.72,2961.88 2056.68,2961.91 2056.63,2961.94C2055.92,2962.37 2055.33,2962.96 2054.91,2963.66L2054.9,2963.68C2054.47,2964.4 2054.22,2965.22 2054.2,2966.11L2054.2,2966.13L2054.2,2966.16L2054.2,2966.2L2054.2,2966.23L2054.2,3021.07C2054.2,3021.96 2054.43,3022.8 2054.84,3023.53C2055.25,3024.25 2055.85,3024.88 2056.61,3025.35L2092.41,3047.08L2092.44,3047.11L2092.45,3047.11C2093.17,3047.54 2094.01,3047.79 2094.91,3047.81L2094.93,3047.81L2094.96,3047.81C2094.97,3047.81 2094.99,3047.81 2095,3047.81L2095.04,3047.81L2095.09,3047.81C2095.99,3047.79 2096.83,3047.54 2097.55,3047.11L2097.6,3047.08L2133.39,3025.35C2134.16,3024.88 2134.75,3024.25 2135.16,3023.53C2135.57,3022.8 2135.8,3021.96 2135.8,3021.07L2135.8,2966.23L2135.8,2966.2L2135.8,2966.15L2135.8,2966.13L2135.8,2966.11C2135.78,2965.22 2135.53,2964.4 2135.1,2963.68L2135.09,2963.66C2134.67,2962.96 2134.08,2962.37 2133.37,2961.94C2133.32,2961.91 2133.28,2961.88 2133.23,2961.86L2097.47,2941.55C2095.94,2940.68 2094.06,2940.68 2092.53,2941.55L2056.77,2961.86ZM2064.2,3018.26L2090,3033.92L2090,2990.78L2064.2,2975.11L2064.2,3018.26ZM2100,2990.78L2100,3033.92L2125.8,3018.26L2125.8,2975.11L2100,2990.78ZM1777.5,2970.35C1786.86,2970.35 1795.18,2972.24 1800.33,2975.36C1802.35,2976.59 1804,2977.72 1804,2979.35C1804,2980.99 1802.35,2982.12 1800.33,2983.34C1795.18,2986.46 1786.86,2988.35 1777.5,2988.35C1768.14,2988.35 1759.82,2986.46 1754.67,2983.34C1752.65,2982.12 1751,2980.99 1751,2979.35C1751,2977.72 1752.65,2976.59 1754.67,2975.36C1759.82,2972.24 1768.14,2970.35 1777.5,2970.35ZM1947,2885.35C1947,2882.59 1944.76,2880.35 1942,2880.35C1913.3,2880.35 1890,2903.65 1890,2932.35C1890,2961.05 1913.3,2984.35 1942,2984.35C1970.7,2984.35 1994,2961.05 1994,2932.35C1994,2929.59 1991.76,2927.35 1989,2927.35L1947,2927.35C1947,2927.35 1947,2885.35 1947,2885.35ZM2120.93,2966.37L2095,2982.11C2095,2982.11 2069.07,2966.37 2069.07,2966.37C2069.07,2966.37 2095,2951.65 2095,2951.65L2120.93,2966.37ZM1937,2890.65L1937,2932.35C1937,2935.11 1939.24,2937.35 1942,2937.35L1983.71,2937.35C1981.23,2958.18 1963.49,2974.35 1942,2974.35C1918.82,2974.35 1900,2955.53 1900,2932.35C1900,2910.86 1916.17,2893.12 1937,2890.65L1937,2890.65ZM1989,2917.35C1991.76,2917.35 1994,2915.11 1994,2912.35C1994,2894.69 1979.66,2880.35 1962,2880.35C1959.24,2880.35 1957,2882.59 1957,2885.35L1957,2912.35C1957,2915.11 1959.24,2917.35 1962,2917.35L1989,2917.35ZM1983.43,2907.35L1967,2907.35C1967,2907.35 1967,2890.92 1967,2890.92C1975.13,2892.82 1981.54,2899.22 1983.43,2907.35L1983.43,2907.35Z"/></g></g></svg>