<?xml version="1.0" ?><!DOCTYPE svg  PUBLIC '-//W3C//DTD SVG 1.1//EN'  'http://www.w3.org/Graphics/SVG/1.1/DTD/svg11.dtd'><svg height="8.4666mm" style="shape-rendering:geometricPrecision; text-rendering:geometricPrecision; image-rendering:optimizeQuality; fill-rule:evenodd; clip-rule:evenodd" version="1.1" viewBox="0 0 846.66 846.66" width="8.4666mm" xml:space="preserve" xmlns="http://www.w3.org/2000/svg" xmlns:xlink="http://www.w3.org/1999/xlink"><defs><style type="text/css">
   <![CDATA[
    .fil0 {fill:black;fill-rule:nonzero}
   ]]>
  </style></defs><g id="Layer_x0020_1"><path class="fil0" d="M30.96 745.14c-11.5,0 -20.65,-9.3 -20.65,-20.77l0 -602.2c0,-11.4 9.25,-20.65 20.65,-20.65l273.72 0c11.4,0 20.65,9.25 20.65,20.65l0 28.97 264.13 0c10.17,0 18.63,7.36 20.34,17.04l15.44 66.39 114.05 0c11.41,0 20.65,9.25 20.65,20.65l0 171.35 55.74 0c14.53,0 24.38,14.59 19.33,27.94l-75.87 275.39c-2.49,9.15 -10.8,15.16 -19.85,15.16l-708.33 0.08zm144.27 -84.54c-27.16,0 -27.16,-41.3 0,-41.3l379.7 0c27.16,0 27.16,41.3 0,41.3l-379.7 0zm150.1 -468.16l0 42.13 257.57 0 -9.81 -42.13 -247.76 0zm-273.72 42.13l232.42 0 0 -91.75 -232.42 0 0 91.75zm667.03 192l0 -150.7 -667.03 0 0 296.24 35.9 -130.29c2.49,-9.16 10.79,-15.17 19.85,-15.17l611.28 -0.08zm70.02 41.3l-665.66 0 -65.01 235.97 665.66 0 65.01 -235.97z"/></g></svg>