<?xml version="1.0" ?><svg viewBox="0 0 447.26 512.87" xmlns="http://www.w3.org/2000/svg"><defs><style>.cls-1{fill:#d2ecfa;}.cls-2{fill:#e4f3fb;}</style></defs><title/><g data-name="图层 2" id="图层_2"><g data-name="图层 1" id="图层_1-2"><path class="cls-1" d="M153.47,377l-17.73,30.72c.14.09.26.19.4.27a11.55,11.55,0,0,0,11.55,0l64.39-37.17v20.5l-55.51,32a11.55,11.55,0,1,0,11.55,20l44-25.38v20.5L177,458.73a11.55,11.55,0,1,0,11.55,20l23.53-13.58v36.15a11.55,11.55,0,0,0,23.11,0V465.16l23.53,13.58a11.55,11.55,0,1,0,11.55-20l-35.08-20.25V418l44,25.38a11.55,11.55,0,0,0,11.55-20l-55.51-32V370.8L299.57,408a11.55,11.55,0,0,0,17.33-10V323.62l17.75,10.25V398a11.55,11.55,0,1,0,23.11,0V347.21l17.75,10.25V398a11.55,11.55,0,1,0,23.11,0V370.8l31.31,18.08a11.55,11.55,0,1,0,11.55-20l-31.31-18.08,23.53-13.58a11.55,11.55,0,1,0-11.55-20l-35.08,20.25L369.31,327.2l44-25.38a11.55,11.55,0,1,0-11.55-20l-55.51,32-17.75-10.25,64.38-37.17a11.55,11.55,0,0,0,0-20l-64.39-37.17L346.2,199l55.51,32a11.55,11.55,0,0,0,11.55-20l-44-25.38,17.75-10.25,35.08,20.25a11.55,11.55,0,0,0,11.55-20l-23.53-13.58L441.48,144a11.55,11.55,0,1,0-11.55-20l-31.31,18.08V114.9a11.55,11.55,0,0,0-23.11,0v40.51l-17.75,10.25V114.9a11.55,11.55,0,0,0-23.11,0V179L316.9,189.24V114.9a11.55,11.55,0,0,0-5.78-10c-.14-.08-.29-.14-.44-.21L293,135.39l.84-.48v67.68l-58.61,33.84v-1l-23.95,41.48.84-.48v67.68L153.47,378Zm151.88-86.72-58.61-33.84,58.61-33.84L364,256.43Zm-70.16-13.83,58.61,33.84V378l-58.61-33.84Z"/><path class="cls-2" d="M1.55,128.22A11.55,11.55,0,0,0,5.78,144l31.31,18.08L13.56,175.66a11.55,11.55,0,0,0,11.55,20L60.2,175.42l17.75,10.25L34,211a11.55,11.55,0,1,0,11.55,20l55.51-32,17.75,10.25L54.42,246.43a11.55,11.55,0,0,0,0,20l64.39,37.17-17.75,10.25-55.51-32a11.55,11.55,0,1,0-11.55,20l44,25.38L60.2,337.45,25.12,317.2a11.55,11.55,0,1,0-11.55,20l23.53,13.58L5.78,368.87a11.55,11.55,0,1,0,11.55,20L48.64,370.8V398a11.55,11.55,0,1,0,23.11,0V357.46L89.5,347.21V398a11.55,11.55,0,0,0,23.11,0v-64.1l17.75-10.25V398a11.46,11.46,0,0,0,5.37,9.74L153.47,377V310.28l57.77-33.35,23.95-41.48V168.75L293,135.39l17.73-30.72a11.54,11.54,0,0,0-11.12.21l-64.38,37.17v-20.5l55.51-32a11.55,11.55,0,0,0-11.55-20l-44,25.38V74.39l35.08-20.25a11.55,11.55,0,1,0-11.55-20L235.18,47.71V11.55a11.55,11.55,0,1,0-23.11,0V47.71L188.55,34.12a11.55,11.55,0,1,0-11.55,20l35.08,20.25v20.5l-44-25.38a11.55,11.55,0,1,0-11.55,20l55.51,32v20.5l-64.39-37.17a11.55,11.55,0,0,0-17.33,10v74.35L112.61,179V114.9a11.55,11.55,0,1,0-23.11,0v50.76L71.75,155.41V114.9a11.55,11.55,0,1,0-23.11,0v27.17L17.33,124A11.55,11.55,0,0,0,1.55,128.22ZM141.91,222.6l58.61,33.84-58.61,33.84L83.3,256.43Zm11.55-87.69,58.61,33.84v67.67l-58.61-33.84Z"/></g></g></svg>