<?xml version="1.0" ?><!DOCTYPE svg  PUBLIC '-//W3C//DTD SVG 1.1//EN'  'http://www.w3.org/Graphics/SVG/1.1/DTD/svg11.dtd'><svg enable-background="new 0 0 512 512" height="512px" id="book_x5F_print" version="1.1" viewBox="0 0 512 512" width="512px" xml:space="preserve" xmlns="http://www.w3.org/2000/svg" xmlns:xlink="http://www.w3.org/1999/xlink"><g><path d="M464.468,169.756c-28.241-28.692-65.766-44.493-105.659-44.493c-38.566,0-74.917,14.77-102.809,41.674   c-27.892-26.905-64.242-41.674-102.809-41.674c-39.894,0-77.418,15.801-105.659,44.493c-0.737,0.749-1.149,1.756-1.149,2.806   v210.174c0,1.624,0.981,3.086,2.484,3.702c1.504,0.614,3.229,0.261,4.367-0.896c26.726-27.152,62.225-42.105,99.958-42.105   s73.232,14.953,99.958,42.105c0.03,0.03,0.066,0.051,0.097,0.08c0.134,0.127,0.275,0.245,0.426,0.354   c0.058,0.041,0.113,0.083,0.172,0.121c0.186,0.119,0.379,0.226,0.586,0.313c0.016,0.007,0.029,0.017,0.046,0.022   c0.003,0.002,0.005,0.004,0.009,0.005c0.219,0.09,0.443,0.153,0.67,0.202c0.066,0.014,0.133,0.021,0.199,0.032   c0.174,0.028,0.347,0.046,0.521,0.052c0.042,0.001,0.084,0.012,0.126,0.012c0.03,0,0.062-0.008,0.091-0.008   c0.197-0.005,0.391-0.023,0.583-0.057c0.036-0.006,0.073-0.008,0.108-0.014c0.229-0.047,0.451-0.115,0.669-0.201   c0.021-0.008,0.043-0.01,0.063-0.019c0.063-0.026,0.119-0.062,0.181-0.091c0.095-0.044,0.188-0.088,0.279-0.139   c0.085-0.049,0.165-0.104,0.246-0.158c0.082-0.055,0.164-0.109,0.243-0.171c0.081-0.063,0.156-0.133,0.231-0.202   c0.051-0.047,0.105-0.086,0.154-0.135c26.726-27.152,62.225-42.105,99.958-42.105s73.232,14.953,99.958,42.105   c0.767,0.779,1.8,1.193,2.852,1.193c0.51,0,1.024-0.098,1.515-0.298c1.503-0.616,2.484-2.078,2.484-3.702V172.563   C465.617,171.513,465.204,170.505,464.468,169.756z M54.383,373.385V174.214c26.589-26.42,61.614-40.95,98.809-40.95   s72.219,14.53,98.809,40.95v199.171c-27.323-24.539-62.061-37.947-98.809-37.947S81.706,348.846,54.383,373.385z M457.617,373.385   c-27.323-24.539-62.061-37.947-98.809-37.947S287.323,348.846,260,373.385V174.214c26.59-26.42,61.614-40.95,98.809-40.95   s72.219,14.53,98.809,40.95V373.385z"/><g><path d="M419.37,232.136c-0.72,0-1.451-0.152-2.147-0.475c-36.386-16.844-78.234-17.081-114.808-0.647    c-2.582,1.157-5.61,0.006-6.77-2.573c-1.159-2.58-0.008-5.61,2.571-6.77c39.287-17.648,84.23-17.394,123.309,0.697    c2.567,1.188,3.684,4.231,2.496,6.797C423.156,231.036,421.305,232.136,419.37,232.136z"/></g><g><path d="M419.37,266.701c-0.72,0-1.451-0.152-2.147-0.476c-36.386-16.844-78.234-17.081-114.808-0.647    c-2.582,1.157-5.61,0.006-6.77-2.572c-1.159-2.58-0.008-5.611,2.571-6.77c39.287-17.649,84.23-17.394,123.309,0.695    c2.567,1.188,3.684,4.232,2.496,6.799C423.156,265.6,421.305,266.701,419.37,266.701z"/></g><g><path d="M419.37,301.266c-0.72,0-1.451-0.152-2.147-0.476c-36.386-16.844-78.234-17.081-114.808-0.647    c-2.582,1.157-5.61,0.006-6.77-2.572c-1.159-2.58-0.008-5.61,2.571-6.77c39.287-17.648,84.23-17.395,123.309,0.695    c2.567,1.189,3.684,4.232,2.496,6.799C423.156,300.164,421.305,301.266,419.37,301.266z"/></g><g><path d="M213.264,232.155c-0.72,0-1.451-0.152-2.148-0.475c-36.386-16.844-78.234-17.081-114.808-0.647    c-2.582,1.157-5.61,0.006-6.77-2.573c-1.159-2.58-0.007-5.61,2.572-6.77c39.286-17.648,84.23-17.394,123.309,0.697    c2.567,1.188,3.683,4.231,2.496,6.797C217.05,231.055,215.198,232.155,213.264,232.155z"/></g><g><path d="M213.264,266.72c-0.72,0-1.451-0.152-2.148-0.476c-36.386-16.843-78.234-17.081-114.808-0.646    c-2.582,1.156-5.61,0.006-6.77-2.573c-1.159-2.58-0.007-5.61,2.572-6.77c39.286-17.649,84.23-17.394,123.309,0.696    c2.567,1.188,3.683,4.231,2.496,6.798C217.05,265.619,215.198,266.72,213.264,266.72z"/></g><g><path d="M213.264,301.284c-0.72,0-1.451-0.152-2.148-0.476c-36.386-16.844-78.234-17.08-114.808-0.646    c-2.582,1.156-5.61,0.006-6.77-2.573c-1.159-2.579-0.007-5.61,2.572-6.77c39.286-17.648,84.23-17.394,123.309,0.696    c2.567,1.188,3.683,4.232,2.496,6.798C217.05,300.184,215.198,301.284,213.264,301.284z"/></g></g></svg>