<?xml version="1.0" ?><svg viewBox="0 0 24 24" xmlns="http://www.w3.org/2000/svg"><g data-name="43. Brightness" id="_43._Brightness"><path d="M12.02,2a1,1,0,0,0,0-2h-.01a1,1,0,0,0,.01,2Z"/><path d="M19.8,3.222h-.01a1.005,1.005,0,1,0,.01,0Z"/><path d="M23.02,11h-.01a1.005,1.005,0,1,0,.01,0Z"/><path d="M19.8,18.778h-.01a1.005,1.005,0,1,0,.01,0Z"/><path d="M12.02,22h-.01a1.005,1.005,0,1,0,.01,0Z"/><path d="M4.242,18.778H4.231a1.006,1.006,0,1,0,.011,0Z"/><path d="M1.02,11H1.01a1.005,1.005,0,1,0,.01,0Z"/><path d="M4.242,5.222a1,1,0,0,0,0-2H4.231a1,1,0,0,0,.011,2Z"/><path d="M19,15c.141,0,.28-.012.418-.021a7.974,7.974,0,0,0-4.456-10.4A5.991,5.991,0,0,0,19,15Z"/><path d="M11,9a7.957,7.957,0,0,1,1.737-4.963C12.494,4.015,12.249,4,12,4a8,8,0,1,0,6.262,12.963A8.009,8.009,0,0,1,11,9Z"/></g></svg>